<?xml version="1.0" encoding="UTF-8" standalone="no"?>
<!-- Created with Inkscape (http://www.inkscape.org/) -->
<!DOCTYPE svg PUBLIC "-//W3C//DTD SVG 1.1//EN" "http://www.w3.org/Graphics/SVG/1.1/DTD/svg11.dtd">
<svg
   xmlns:svg="http://www.w3.org/2000/svg"
   xmlns="http://www.w3.org/2000/svg"
   xmlns:xlink="http://www.w3.org/1999/xlink"
   version="1.1"
   width="400"
   height="80"
   id="svg11185"
   xml:space="preserve"><defs
     id="defs11189"><linearGradient
       x1="-250.27283"
       y1="-414.69208"
       x2="257.81677"
       y2="85.526321"
       id="linearGradient10056"
       xlink:href="#linearGradient17449"
       gradientUnits="userSpaceOnUse"
       gradientTransform="translate(381.39152,553.1065)" /><linearGradient
       id="linearGradient17449"><stop
         id="stop17451"
         style="stop-color:#7ab734;stop-opacity:1"
         offset="0" /><stop
         id="stop17461"
         style="stop-color:white;stop-opacity:1"
         offset="0.5" /><stop
         id="stop17453"
         style="stop-color:#0096d5;stop-opacity:1"
         offset="1" /></linearGradient><linearGradient
       x1="180.40948"
       y1="368.24054"
       x2="175.30025"
       y2="361.28848"
       id="linearGradient12740"
       xlink:href="#linearGradient12731"
       gradientUnits="userSpaceOnUse" /><linearGradient
       id="linearGradient12731"><stop
         id="stop12733"
         style="stop-color:#eaeaea;stop-opacity:1"
         offset="0" /><stop
         id="stop12735"
         style="stop-color:#1c1714;stop-opacity:1"
         offset="1" /></linearGradient><linearGradient
       x1="176.57527"
       y1="398.34122"
       x2="182.70712"
       y2="407.26361"
       id="linearGradient12752"
       xlink:href="#linearGradient12746"
       gradientUnits="userSpaceOnUse" /><linearGradient
       id="linearGradient12746"><stop
         id="stop12748"
         style="stop-color:#1c1714;stop-opacity:1"
         offset="0" /><stop
         id="stop12750"
         style="stop-color:#eaeaea;stop-opacity:1"
         offset="1" /></linearGradient><linearGradient
       x1="181.84334"
       y1="343.15869"
       x2="204.33521"
       y2="371.23944"
       id="linearGradient12737"
       xlink:href="#linearGradient12731"
       gradientUnits="userSpaceOnUse" /><linearGradient
       x1="654.50323"
       y1="342.88031"
       x2="677.21594"
       y2="371.75629"
       id="linearGradient12841"
       xlink:href="#linearGradient12835"
       gradientUnits="userSpaceOnUse" /><linearGradient
       id="linearGradient12835"><stop
         id="stop12837"
         style="stop-color:#eaeaea;stop-opacity:1"
         offset="0" /><stop
         id="stop12839"
         style="stop-color:#1c1714;stop-opacity:1"
         offset="1" /></linearGradient><linearGradient
       x1="647.64966"
       y1="361.04413"
       x2="654.28369"
       y2="368.34879"
       id="linearGradient12850"
       xlink:href="#linearGradient12844"
       gradientUnits="userSpaceOnUse" /><linearGradient
       id="linearGradient12844"><stop
         id="stop12846"
         style="stop-color:#1c1714;stop-opacity:1"
         offset="0" /><stop
         id="stop12848"
         style="stop-color:#eaeaea;stop-opacity:1"
         offset="1" /></linearGradient><linearGradient
       x1="180.40948"
       y1="368.24054"
       x2="175.30025"
       y2="361.28848"
       id="linearGradient12782"
       xlink:href="#linearGradient12731"
       gradientUnits="userSpaceOnUse" /><linearGradient
       x1="176.57527"
       y1="398.34122"
       x2="182.70712"
       y2="407.26361"
       id="linearGradient12784"
       xlink:href="#linearGradient12746"
       gradientUnits="userSpaceOnUse" /><linearGradient
       x1="181.84334"
       y1="343.15869"
       x2="204.33521"
       y2="371.23944"
       id="linearGradient12786"
       xlink:href="#linearGradient12731"
       gradientUnits="userSpaceOnUse" /><linearGradient
       x1="654.50323"
       y1="342.88031"
       x2="677.21594"
       y2="371.75629"
       id="linearGradient12883"
       xlink:href="#linearGradient12835"
       gradientUnits="userSpaceOnUse" /><linearGradient
       x1="647.64966"
       y1="361.04413"
       x2="654.28369"
       y2="368.34879"
       id="linearGradient12885"
       xlink:href="#linearGradient12844"
       gradientUnits="userSpaceOnUse" /><linearGradient
       x1="-250.27283"
       y1="-414.69208"
       x2="257.81677"
       y2="85.526321"
       id="linearGradient26445"
       xlink:href="#linearGradient17449"
       gradientUnits="userSpaceOnUse"
       gradientTransform="matrix(0.04510235,0,0,-0.04510235,382.73337,845.63511)" /><linearGradient
       x1="654.50323"
       y1="342.88031"
       x2="677.21594"
       y2="371.75629"
       id="linearGradient26447"
       xlink:href="#linearGradient12835"
       gradientUnits="userSpaceOnUse" /><linearGradient
       x1="647.64966"
       y1="361.04413"
       x2="654.28369"
       y2="368.34879"
       id="linearGradient26449"
       xlink:href="#linearGradient12844"
       gradientUnits="userSpaceOnUse" /><linearGradient
       x1="647.64966"
       y1="361.04413"
       x2="654.28369"
       y2="368.34879"
       id="linearGradient26452"
       xlink:href="#linearGradient12844"
       gradientUnits="userSpaceOnUse"
       gradientTransform="matrix(0.04510235,0,0,-0.04510235,354.69095,859.77594)" /><linearGradient
       x1="654.50323"
       y1="342.88031"
       x2="677.21594"
       y2="371.75629"
       id="linearGradient26458"
       xlink:href="#linearGradient12835"
       gradientUnits="userSpaceOnUse"
       gradientTransform="matrix(0.04510235,0,0,-0.04510235,354.69095,859.77594)" /><linearGradient
       x1="180.40948"
       y1="368.24054"
       x2="175.30025"
       y2="361.28848"
       id="linearGradient26464"
       xlink:href="#linearGradient12731"
       gradientUnits="userSpaceOnUse" /><linearGradient
       x1="176.57527"
       y1="398.34122"
       x2="182.70712"
       y2="407.26361"
       id="linearGradient26466"
       xlink:href="#linearGradient12746"
       gradientUnits="userSpaceOnUse" /><linearGradient
       x1="181.84334"
       y1="343.15869"
       x2="204.33521"
       y2="371.23944"
       id="linearGradient26468"
       xlink:href="#linearGradient12731"
       gradientUnits="userSpaceOnUse" /><linearGradient
       x1="181.84334"
       y1="343.15869"
       x2="204.33521"
       y2="371.23944"
       id="linearGradient26471"
       xlink:href="#linearGradient12731"
       gradientUnits="userSpaceOnUse"
       gradientTransform="matrix(0.04510235,0,0,-0.04510235,376.08356,881.24666)" /><linearGradient
       x1="176.57527"
       y1="398.34122"
       x2="182.70712"
       y2="407.26361"
       id="linearGradient26474"
       xlink:href="#linearGradient12746"
       gradientUnits="userSpaceOnUse"
       gradientTransform="matrix(0.04510235,0,0,-0.04510235,376.08356,881.24666)" /><linearGradient
       x1="180.40948"
       y1="368.24054"
       x2="175.30025"
       y2="361.28848"
       id="linearGradient26478"
       xlink:href="#linearGradient12731"
       gradientUnits="userSpaceOnUse"
       gradientTransform="matrix(0.04510235,0,0,-0.04510235,376.08356,881.24666)" /><linearGradient
       x1="654.50323"
       y1="342.88031"
       x2="677.21594"
       y2="371.75629"
       id="linearGradient26504"
       xlink:href="#linearGradient12835"
       gradientUnits="userSpaceOnUse" /><linearGradient
       x1="647.64966"
       y1="361.04413"
       x2="654.28369"
       y2="368.34879"
       id="linearGradient26506"
       xlink:href="#linearGradient12844"
       gradientUnits="userSpaceOnUse" /><linearGradient
       x1="647.64966"
       y1="361.04413"
       x2="654.28369"
       y2="368.34879"
       id="linearGradient26509"
       xlink:href="#linearGradient12844"
       gradientUnits="userSpaceOnUse"
       gradientTransform="matrix(0.04510235,0,0,-0.04510235,365.53172,870.58151)" /><linearGradient
       x1="654.50323"
       y1="342.88031"
       x2="677.21594"
       y2="371.75629"
       id="linearGradient26515"
       xlink:href="#linearGradient12835"
       gradientUnits="userSpaceOnUse"
       gradientTransform="matrix(0.04510235,0,0,-0.04510235,365.53172,870.58151)" /><linearGradient
       x1="180.40948"
       y1="368.24054"
       x2="175.30025"
       y2="361.28848"
       id="linearGradient26521"
       xlink:href="#linearGradient12731"
       gradientUnits="userSpaceOnUse" /><linearGradient
       x1="176.57527"
       y1="398.34122"
       x2="182.70712"
       y2="407.26361"
       id="linearGradient26523"
       xlink:href="#linearGradient12746"
       gradientUnits="userSpaceOnUse" /><linearGradient
       x1="181.84334"
       y1="343.15869"
       x2="204.33521"
       y2="371.23944"
       id="linearGradient26525"
       xlink:href="#linearGradient12731"
       gradientUnits="userSpaceOnUse" /><linearGradient
       x1="181.84334"
       y1="343.15869"
       x2="204.33521"
       y2="371.23944"
       id="linearGradient26528"
       xlink:href="#linearGradient12731"
       gradientUnits="userSpaceOnUse"
       gradientTransform="matrix(0.04510235,0,0,-0.04510235,365.53172,870.58151)" /><linearGradient
       x1="176.57527"
       y1="398.34122"
       x2="182.70712"
       y2="407.26361"
       id="linearGradient26531"
       xlink:href="#linearGradient12746"
       gradientUnits="userSpaceOnUse"
       gradientTransform="matrix(0.04510235,0,0,-0.04510235,365.53172,870.58151)" /><linearGradient
       x1="180.40948"
       y1="368.24054"
       x2="175.30025"
       y2="361.28848"
       id="linearGradient26535"
       xlink:href="#linearGradient12731"
       gradientUnits="userSpaceOnUse"
       gradientTransform="matrix(0.04510235,0,0,-0.04510235,365.53172,870.58151)" /><linearGradient
       x1="-250.27283"
       y1="-414.69208"
       x2="257.81677"
       y2="85.526321"
       id="linearGradient26621"
       xlink:href="#linearGradient17449"
       gradientUnits="userSpaceOnUse"
       gradientTransform="matrix(0.04510235,0,0,-0.04510235,382.73337,845.63511)" /><linearGradient
       x1="180.40948"
       y1="368.24054"
       x2="175.30025"
       y2="361.28848"
       id="linearGradient26623"
       xlink:href="#linearGradient12731"
       gradientUnits="userSpaceOnUse"
       gradientTransform="matrix(0.04510235,0,0,-0.04510235,365.53172,870.58151)" /><linearGradient
       x1="176.57527"
       y1="398.34122"
       x2="182.70712"
       y2="407.26361"
       id="linearGradient26625"
       xlink:href="#linearGradient12746"
       gradientUnits="userSpaceOnUse"
       gradientTransform="matrix(0.04510235,0,0,-0.04510235,365.53172,870.58151)" /><linearGradient
       x1="181.84334"
       y1="343.15869"
       x2="204.33521"
       y2="371.23944"
       id="linearGradient26627"
       xlink:href="#linearGradient12731"
       gradientUnits="userSpaceOnUse"
       gradientTransform="matrix(0.04510235,0,0,-0.04510235,365.53172,870.58151)" /><linearGradient
       x1="654.50323"
       y1="342.88031"
       x2="677.21594"
       y2="371.75629"
       id="linearGradient26629"
       xlink:href="#linearGradient12835"
       gradientUnits="userSpaceOnUse"
       gradientTransform="matrix(0.04510235,0,0,-0.04510235,365.53172,870.58151)" /><linearGradient
       x1="647.64966"
       y1="361.04413"
       x2="654.28369"
       y2="368.34879"
       id="linearGradient26631"
       xlink:href="#linearGradient12844"
       gradientUnits="userSpaceOnUse"
       gradientTransform="matrix(0.04510235,0,0,-0.04510235,365.53172,870.58151)" /><linearGradient
       x1="180.40948"
       y1="368.24054"
       x2="175.30025"
       y2="361.28848"
       id="linearGradient26633"
       xlink:href="#linearGradient12731"
       gradientUnits="userSpaceOnUse"
       gradientTransform="matrix(0.04510235,0,0,-0.04510235,376.08356,881.24666)" /><linearGradient
       x1="176.57527"
       y1="398.34122"
       x2="182.70712"
       y2="407.26361"
       id="linearGradient26635"
       xlink:href="#linearGradient12746"
       gradientUnits="userSpaceOnUse"
       gradientTransform="matrix(0.04510235,0,0,-0.04510235,376.08356,881.24666)" /><linearGradient
       x1="181.84334"
       y1="343.15869"
       x2="204.33521"
       y2="371.23944"
       id="linearGradient26637"
       xlink:href="#linearGradient12731"
       gradientUnits="userSpaceOnUse"
       gradientTransform="matrix(0.04510235,0,0,-0.04510235,376.08356,881.24666)" /><linearGradient
       x1="654.50323"
       y1="342.88031"
       x2="677.21594"
       y2="371.75629"
       id="linearGradient26639"
       xlink:href="#linearGradient12835"
       gradientUnits="userSpaceOnUse"
       gradientTransform="matrix(0.04510235,0,0,-0.04510235,354.69095,859.77594)" /><linearGradient
       x1="647.64966"
       y1="361.04413"
       x2="654.28369"
       y2="368.34879"
       id="linearGradient26641"
       xlink:href="#linearGradient12844"
       gradientUnits="userSpaceOnUse"
       gradientTransform="matrix(0.04510235,0,0,-0.04510235,354.69095,859.77594)" /></defs><g
     transform="matrix(1.25,0,0,-1.25,0,80.000057)"
     id="g11195"><g
       transform="matrix(1.4886942,0,0,1.4886942,-538.44333,-1237.9427)"
       id="g26541"><path
         d="m 454.43498,847.43368 0,10.311 0.034,0 4.434,-10.105 0.465,0 4.485,10.105 0.052,0 0,-10.311 1.701,0 0,11.893 -1.907,0 c -0.585,-1.53 -1.29,-3.042 -1.977,-4.555 l -2.063,-4.606 -0.034,0 -2.028,4.589 c -0.67,1.53 -1.392,3.042 -2.01,4.572 l -3.49,0 0,-0.499 c 1.513,-0.103 1.548,-0.138 1.548,-1.1 l 0,-10.294"
         id="path13381"
         style="fill:#00a4a7;fill-opacity:1;fill-rule:nonzero;stroke:none" /><path
         d="m 473.99498,853.77568 c 0,0.996 -0.224,2.285 -2.82,2.285 -1.941,0 -3.471,-1.014 -3.471,-1.959 0,-0.55 0.636,-0.808 0.963,-0.808 0.361,0 0.464,0.189 0.55,0.482 0.378,1.271 1.082,1.683 1.77,1.683 0.67,0 1.461,-0.343 1.461,-1.718 l 0,-0.722 c -0.43,-0.446 -2.097,-0.876 -3.454,-1.306 -1.239,-0.378 -1.599,-1.237 -1.599,-2.045 0,-1.289 0.86,-2.441 2.475,-2.441 1.065,0.035 2.011,0.671 2.56,1.032 l 0.155,-1.032 2.613,0.413 0,0.447 -0.688,0.086 c -0.465,0.051 -0.515,0.206 -0.515,0.911 l 0,4.692 z m -1.547,-3.885 c 0,-1.392 -1.066,-1.753 -1.736,-1.753 -1.065,0 -1.581,0.757 -1.581,1.771 0,0.807 0.378,1.22 1.34,1.58 0.688,0.259 1.599,0.585 1.977,0.826 l 0,-2.424"
         id="path13383"
         style="fill:#00a4a7;fill-opacity:1;fill-rule:evenodd;stroke:none" /><path
         d="m 480.63198,855.16768 0,0.687 -2.217,0 0,2.165 -0.498,0 -1.05,-2.165 -1.305,0 0,-0.687 1.238,0 0,-5.981 c 0,-1.753 1.306,-1.96 1.908,-1.96 0.875,0 1.7,0.448 2.199,0.757 l -0.138,0.36 c -0.413,-0.171 -0.791,-0.222 -1.22,-0.222 -0.584,0 -1.134,0.412 -1.134,1.718 l 0,5.328"
         id="path13385"
         style="fill:#00a4a7;fill-opacity:1;fill-rule:nonzero;stroke:none" /><path
         d="m 487.14298,853.15668 c 0,-0.327 -0.104,-0.55 -0.585,-0.55 l -3.248,0 c 0,0.704 0.258,2.852 2.045,2.852 1.598,0 1.788,-1.632 1.788,-2.302 m 1.787,-0.55 c 0,1.014 -0.327,3.454 -3.472,3.454 -2.681,0 -3.952,-1.907 -3.952,-4.485 0,-2.716 1.169,-4.365 3.97,-4.349 1.649,0.035 2.613,0.809 3.145,1.891 l -0.585,0.31 c -0.447,-0.756 -1.1,-1.324 -2.217,-1.324 -2.131,0 -2.56,2.062 -2.527,3.85 l 4.95,0 c 0.361,0 0.688,0.086 0.688,0.653"
         id="path13387"
         style="fill:#00a4a7;fill-opacity:1;fill-rule:evenodd;stroke:none" /><path
         d="m 507.67598,853.75968 c 0,0.996 -0.224,2.285 -2.819,2.285 -1.942,0 -3.471,-1.014 -3.471,-1.959 0,-0.55 0.636,-0.807 0.962,-0.807 0.36,0 0.463,0.188 0.549,0.481 0.378,1.271 1.083,1.684 1.771,1.684 0.67,0 1.46,-0.344 1.46,-1.719 l 0,-0.721 c -0.428,-0.447 -2.096,-0.877 -3.453,-1.306 -1.238,-0.379 -1.598,-1.238 -1.598,-2.046 0,-1.288 0.858,-2.44 2.474,-2.44 1.065,0.034 2.01,0.67 2.561,1.031 l 0.155,-1.031 2.612,0.412 0,0.448 -0.688,0.085 c -0.464,0.052 -0.515,0.207 -0.515,0.911 l 0,4.692 z m -1.548,-3.884 c 0,-1.392 -1.064,-1.753 -1.736,-1.753 -1.064,0 -1.581,0.756 -1.581,1.77 0,0.808 0.378,1.22 1.341,1.581 0.688,0.257 1.598,0.585 1.976,0.825 l 0,-2.423"
         id="path13389"
         style="fill:#00a4a7;fill-opacity:1;fill-rule:evenodd;stroke:none" /><path
         d="m 512.03498,860.08168 -0.121,0.104 -2.697,-0.43 0,-0.429 0.653,-0.069 c 0.445,-0.052 0.549,-0.138 0.549,-0.791 l 0,-11.033 1.616,0"
         id="path13391"
         style="fill:#00a4a7;fill-opacity:1;fill-rule:nonzero;stroke:none" /><path
         d="m 498.49198,859.72068 c -0.619,0 -1.048,-0.446 -1.048,-1.065 0,-0.602 0.429,-1.031 1.048,-1.031 0.636,0 1.032,0.429 1.048,1.031 0,0.619 -0.412,1.065 -1.048,1.065 m -1.993,-4.09 0,-0.429 0.653,-0.086 c 0.447,-0.069 0.549,-0.155 0.549,-0.773 l 0,-6.909 1.615,0 0,8.524 -0.119,0.103 -2.698,-0.43"
         id="path13393"
         style="fill:#00a4a7;fill-opacity:1;fill-rule:evenodd;stroke:none" /><path
         d="m 492.65598,856.04068 0.206,-1.373 c 1.133,0.996 1.438,1.368 2.055,1.368 0.67,0 0.911,-0.463 0.911,-0.841 0,-0.531 -0.379,-0.928 -0.79,-0.928 -0.087,0 -0.219,0.016 -0.321,0.077 -0.498,0.275 -0.603,0.359 -0.877,0.359 -0.394,0 -0.978,-0.447 -0.978,-1.768 l -0.007,-5.501 -1.607,0 0,6.891 c 0,0.618 -0.102,0.704 -0.549,0.773 l -0.652,0.085 0,0.429"
         id="path13395"
         style="fill:#00a4a7;fill-opacity:1;fill-rule:nonzero;stroke:none" /><path
         d="m 565.65198,852.59268 c 0,0.704 0.258,2.851 2.044,2.851 1.599,0 1.788,-1.632 1.788,-2.301 0,-0.327 -0.105,-0.55 -0.585,-0.55 l -3.247,0 z m 4.93,-0.653 -4.946,0 c -0.036,-1.786 0.395,-3.847 2.525,-3.847 1.118,0 1.757,0.56 2.217,1.315 l 0.571,-0.301 c -0.529,-1.09 -1.484,-1.876 -3.132,-1.89 -2.799,-0.035 -3.968,1.632 -3.968,4.346 0,2.576 1.27,4.482 3.951,4.482 3.142,0 3.468,-2.439 3.468,-3.452 0,-0.567 -0.326,-0.653 -0.686,-0.653"
         id="path13397"
         style="fill:#00a4a7;fill-opacity:1;fill-rule:evenodd;stroke:none" /><path
         d="m 538.33198,852.59268 c 0,0.704 0.26,2.851 2.045,2.851 1.598,0 1.787,-1.632 1.787,-2.301 0,-0.327 -0.103,-0.55 -0.584,-0.55 l -3.248,0 z m 4.932,-0.653 -4.948,0 c -0.034,-1.786 0.395,-3.847 2.524,-3.847 1.12,0 1.76,0.56 2.218,1.315 l 0.572,-0.301 c -0.529,-1.09 -1.484,-1.876 -3.134,-1.89 -2.797,-0.035 -3.966,1.632 -3.966,4.346 0,2.576 1.271,4.482 3.951,4.482 3.143,0 3.469,-2.439 3.469,-3.452 0,-0.567 -0.326,-0.653 -0.686,-0.653"
         id="path13399"
         style="fill:#00a4a7;fill-opacity:1;fill-rule:evenodd;stroke:none" /><path
         d="m 514.58798,848.18768 c 0.755,-0.704 2.181,-1.03 3.384,-1.03 3.041,0 4.244,1.735 4.244,3.487 0,2.028 -1.375,2.99 -3.385,3.728 l -0.55,0.207 c -1.149,0.429 -2.113,1.168 -2.113,2.199 0,1.254 0.757,2.182 2.199,2.182 1.478,0 2.303,-0.842 2.577,-2.577 l 0.532,0 0,2.423 c -0.584,0.464 -1.75,0.755 -2.921,0.755 -2.095,0 -3.95,-1.047 -3.95,-3.316 0,-1.804 1.443,-2.748 3.246,-3.385 l 0.309,-0.12 c 0.758,-0.291 2.389,-1.081 2.389,-2.611 0,-1.477 -0.944,-2.371 -2.474,-2.371 -1.615,0 -2.679,1.254 -3.11,3.178 l -0.55,0"
         id="path13401"
         style="fill:#00a4a7;fill-opacity:1;fill-rule:nonzero;stroke:none" /><path
         d="m 557.11398,851.84868 c -0.018,-1.766 0.431,-3.756 2.523,-3.756 1.119,0 1.76,0.56 2.218,1.315 l 0.572,-0.301 c -0.528,-1.09 -1.483,-1.876 -3.132,-1.89 -2.8,-0.035 -3.968,1.632 -3.968,4.346 0.006,2.276 1.059,4.477 4.175,4.477 1.855,0 2.99,-0.877 2.99,-1.667 0,-0.652 -0.67,-0.875 -1.015,-0.875 -0.325,0 -0.429,0.171 -0.532,0.446 -0.344,0.928 -0.843,1.495 -1.634,1.495 -1.184,0 -2.197,-1.031 -2.197,-3.59"
         id="path13403"
         style="fill:#00a4a7;fill-opacity:1;fill-rule:nonzero;stroke:none" /><path
         d="m 525.40198,851.84868 c -0.018,-1.766 0.43,-3.756 2.524,-3.756 1.117,0 1.759,0.56 2.217,1.315 l 0.57,-0.301 c -0.527,-1.09 -1.481,-1.876 -3.131,-1.89 -2.8,-0.035 -3.968,1.632 -3.968,4.346 0.009,2.276 1.059,4.477 4.176,4.477 1.856,0 2.988,-0.877 2.988,-1.667 0,-0.652 -0.67,-0.875 -1.014,-0.875 -0.325,0 -0.43,0.171 -0.532,0.446 -0.344,0.928 -0.841,1.495 -1.632,1.495 -1.186,0 -2.198,-1.031 -2.198,-3.59"
         id="path13405"
         style="fill:#00a4a7;fill-opacity:1;fill-rule:nonzero;stroke:none" /><path
         d="m 546.20998,854.32568 -0.016,-6.892 1.62,0 0.011,5.501 c 0,0.43 0.033,0.67 0.17,0.945 0.363,0.669 1.136,1.237 2.045,1.237 1.168,0 1.805,-0.653 1.805,-2.147 l 0.008,-5.536 1.604,0 0.002,5.879 c 0,1.735 -0.944,2.732 -2.525,2.732 -1.272,0 -2.061,-0.619 -3.126,-1.306 l -0.24,1.306 -2.561,-0.429 0,-0.43 0.654,-0.087 c 0.446,-0.068 0.549,-0.154 0.549,-0.773"
         id="path13407"
         style="fill:#00a4a7;fill-opacity:1;fill-rule:nonzero;stroke:none" /><path
         d="m 533.60898,857.60368 c 0.634,0 1.03,0.429 1.046,1.031 0,0.617 -0.412,1.065 -1.046,1.065 -0.621,0 -1.048,-0.448 -1.048,-1.065 0,-0.602 0.427,-1.031 1.048,-1.031"
         id="path13409"
         style="fill:#00a4a7;fill-opacity:1;fill-rule:nonzero;stroke:none" /><path
         d="m 532.81798,854.32168 -0.007,-6.888 1.591,0 0.031,8.503 -0.121,0.103 -2.697,-0.429 0,-0.43 0.653,-0.086 c 0.446,-0.068 0.55,-0.154 0.55,-0.773"
         id="path13411"
         style="fill:#00a4a7;fill-opacity:1;fill-rule:nonzero;stroke:none" /><path
         d="m 408.62898,857.86568 c 0,0.738 0.052,0.842 1.392,0.859 1.238,0.017 2.63,-0.464 2.63,-2.234 0,-1.684 -1.083,-2.355 -2.871,-2.355 l -1.151,0 0,3.73 z m 0,-4.331 1.238,0 c 2.131,0 3.299,-1.066 3.299,-2.888 0,-2.061 -1.409,-2.611 -2.887,-2.611 -1.375,0 -1.65,0.257 -1.65,1.323 l 0,4.176 z m 2.08,-6.101 c 2.612,0 4.296,0.945 4.296,3.334 0,2.028 -1.443,2.921 -3.111,3.145 l 0,0.034 c 1.616,0.327 2.561,1.324 2.561,2.647 0,0.945 -0.378,1.65 -1.065,2.114 -0.671,0.447 -1.702,0.636 -3.042,0.619 l -4.967,0 0,-0.499 c 1.512,-0.103 1.547,-0.138 1.547,-1.1 l 0,-8.696 c 0,-0.963 -0.035,-0.996 -1.547,-1.1 l 0,-0.498 5.328,0"
         id="path13413"
         style="fill:#666;fill-opacity:1;fill-rule:evenodd;stroke:none" /><path
         d="m 423.08198,853.77568 c 0,0.996 -0.223,2.285 -2.819,2.285 -1.941,0 -3.471,-1.014 -3.471,-1.959 0,-0.55 0.636,-0.808 0.962,-0.808 0.361,0 0.464,0.189 0.55,0.482 0.379,1.271 1.083,1.683 1.771,1.683 0.67,0 1.46,-0.343 1.46,-1.718 l 0,-0.722 c -0.43,-0.446 -2.096,-0.876 -3.454,-1.306 -1.238,-0.378 -1.598,-1.237 -1.598,-2.045 0,-1.289 0.859,-2.441 2.474,-2.441 1.066,0.035 2.011,0.671 2.561,1.032 l 0.155,-1.032 2.612,0.413 0,0.447 -0.687,0.086 c -0.465,0.051 -0.516,0.206 -0.516,0.911 l 0,4.692 z m -1.547,-3.885 c 0,-1.392 -1.065,-1.753 -1.735,-1.753 -1.066,0 -1.582,0.757 -1.582,1.771 0,0.807 0.378,1.22 1.341,1.58 0.687,0.259 1.598,0.585 1.976,0.826 l 0,-2.424"
         id="path13415"
         style="fill:#666;fill-opacity:1;fill-rule:evenodd;stroke:none" /><path
         d="m 424.09898,855.85468 0,-0.499 c 0.825,-0.034 0.996,-0.137 1.305,-0.893 0.86,-2.063 2.287,-5.723 2.699,-6.909 0.103,-0.292 0.137,-0.549 0.137,-0.842 0,-0.395 -0.154,-0.911 -0.412,-1.46 -0.258,-0.568 -0.567,-0.722 -0.756,-0.722 -0.172,0 -0.327,0.051 -0.636,0.361 -0.172,0.155 -0.309,0.24 -0.516,0.24 -0.326,0 -0.756,-0.464 -0.756,-0.962 0,-0.413 0.481,-0.894 1.203,-0.894 0.687,0 1.564,0.206 2.441,2.75 1.065,3.059 2.646,7.252 3.179,8.455 0.309,0.688 0.412,0.825 1.272,0.876 l 0,0.499 -3.3,0 0,-0.499 0.893,-0.085 c 0.293,-0.035 0.327,-0.241 0.241,-0.585 -0.257,-1.031 -1.151,-3.626 -1.907,-5.688 l -0.035,0 c -0.79,2.079 -1.478,3.952 -2.114,5.757 -0.103,0.309 -0.137,0.498 0.258,0.533 l 0.739,0.068 0,0.499"
         id="path13417"
         style="fill:#666;fill-opacity:1;fill-rule:nonzero;stroke:none" /><path
         d="m 438.99798,853.15668 c 0,-0.327 -0.103,-0.55 -0.584,-0.55 l -3.248,0 c 0,0.704 0.258,2.852 2.045,2.852 1.599,0 1.787,-1.632 1.787,-2.302 m 1.788,-0.55 c 0,1.014 -0.327,3.454 -3.472,3.454 -2.681,0 -3.952,-1.907 -3.952,-4.485 0,-2.716 1.168,-4.365 3.969,-4.349 1.65,0.035 2.613,0.809 3.146,1.891 l -0.584,0.31 c -0.447,-0.756 -1.101,-1.324 -2.218,-1.324 -2.131,0 -2.56,2.062 -2.526,3.85 l 4.95,0 c 0.36,0 0.687,0.086 0.687,0.653"
         id="path13419"
         style="fill:#666;fill-opacity:1;fill-rule:evenodd;stroke:none" /><path
         d="m 444.49998,856.06068 -2.612,-0.43 0,-0.429 0.653,-0.086 c 0.447,-0.069 0.55,-0.155 0.55,-0.773 l 0,-6.909 1.615,0 0,5.516 c 0,1.324 0.585,1.771 0.98,1.771 0.275,0 0.568,-0.103 1.066,-0.378 0.12,-0.069 0.258,-0.086 0.344,-0.086 0.412,0 0.791,0.429 0.791,0.962 0,0.378 -0.242,0.842 -0.912,0.842 -0.618,0 -1.134,-0.378 -2.269,-1.375"
         id="path13421"
         style="fill:#666;fill-opacity:1;fill-rule:nonzero;stroke:none" /><path
         d="m 383.11687,868.98631 c -8.82173,0 -15.98704,-7.11676 -15.98704,-15.90457 0,-8.82173 7.16531,-15.95169 15.98704,-15.95169 8.82174,0 15.97526,7.12996 15.97526,15.95169 0,8.78781 -7.15352,15.90457 -15.97526,15.90457 z m 0,-1.51977 c 7.97349,0 14.45549,-6.44523 14.45549,-14.3848 0,-7.97349 -6.482,-14.42014 -14.45549,-14.42014 -7.97349,0 -14.45548,6.44665 -14.45548,14.42014 -10e-6,7.93957 6.48199,14.3848 14.45548,14.3848 z"
         id="path7709"
         style="fill:url(#linearGradient26621);fill-opacity:1;stroke:black;stroke-width:0.13530704;stroke-miterlimit:4;stroke-opacity:1;stroke-dasharray:none" /><path
         d="m 371.34276,851.68741 1.96792,0 c 0.30537,0 0.47502,0.20358 0.47502,0.47501 0,0.30537 -0.16965,0.50895 -0.47502,0.50895 l -1.96792,0 0,-0.98396 z m 0,1.79827 1.90007,0 c 0.27143,0 0.44108,0.16965 0.44108,0.44109 0,0.23751 -0.16965,0.44109 -0.44108,0.44109 l -1.90007,0 0,-0.88218 0,0 z m -0.9161,-2.61259 0,4.27515 2.95188,0 c 0.6786,0 1.22147,-0.54287 1.22147,-1.22147 0,-0.30537 -0.10178,-0.61074 -0.33929,-0.81431 0.27144,-0.23751 0.44108,-0.57681 0.44108,-0.95004 0,-0.67859 -0.5768,-1.28933 -1.2554,-1.28933 l -3.01974,0 0,0 z"
         id="path6143"
         style="fill:#9d9d9d;fill-opacity:1" /><path
         d="m 370.2576,855.31859 0,-4.61453 3.18817,0 c 0.78039,0 1.42636,0.64446 1.42636,1.45878 0,0.37323 -0.13599,0.71246 -0.3735,0.94997 0.19258,0.18788 0.25248,0.53442 0.27062,0.81466 0,0.78038 -0.61075,1.39112 -1.39113,1.39112 l -3.12052,0 z m 0.13531,-0.13671 2.98521,0 c 0.71252,0 1.25582,-0.54189 1.25582,-1.25441 0,-0.0479 -0.003,-0.0962 -0.008,-0.14377 l -0.0832,-0.0846 c -0.012,-0.0567 -0.0292,-0.1122 -0.0493,-0.16632 -0.009,-0.0237 -0.018,-0.0474 -0.0282,-0.0705 -10e-4,-0.003 -0.003,-0.007 -0.004,-0.01 -0.003,-0.006 -0.006,-0.0122 -0.008,-0.0183 -0.009,-0.0199 -0.0191,-0.0399 -0.0296,-0.0592 -0.0536,-0.0982 -0.12043,-0.18668 -0.19591,-0.26215 0.27144,-0.23751 0.44116,-0.57674 0.44116,-0.94997 0,-0.6786 -0.5434,-1.25582 -1.22199,-1.25582 l -2.98522,0 -0.0677,-0.0676 0,4.34251 z"
         id="polygon6217"
         style="fill:#1c1714" /><path
         d="m 371.30905,854.36722 0,-0.91615 0.0677,0.0691 1.86611,0 c 0.20358,0 0.40733,0.20375 0.40733,0.40733 0,0.1242 -0.12461,0.2458 -0.26296,0.31317 0,0 0.11534,0.0608 0.0769,0.0772 -0.0382,0.0163 -0.0733,0.0282 -0.0733,0.0282 -0.0177,0.005 -0.0257,0.006 -0.0442,0.011 -0.0284,0.007 -0.0713,0.0105 -0.10379,0.0101 l -1.93376,0 z m 0.20296,-0.20297 1.7308,0 c 0.16965,0 0.27203,-0.10106 0.27203,-0.23678 0,-0.16965 -0.10238,-0.27203 -0.27203,-0.27203 l -1.7308,0 0,0.50881 z"
         id="path6247"
         style="fill:#1c1714" /><path
         d="m 371.30905,852.70548 0,-1.05145 0.0677,0.0676 1.93377,0 c 0.2375,0 0.44115,0.23758 0.44115,0.44116 0,0.18068 -0.11811,0.36082 -0.27907,0.43693 l 0.0606,0.0564 c -0.0165,0.008 -0.0332,0.0136 -0.0507,0.0197 l 10e-4,10e-4 c -0.0132,0.005 -0.027,0.008 -0.0409,0.0113 -0.003,8.3e-4 -0.007,0.002 -0.01,0.003 -0.0388,0.009 -0.0797,0.0141 -0.12263,0.0141 l -2.00141,0 z m 0.20296,-0.20437 1.79846,0 c 0.16964,0 0.30585,-0.13469 0.30585,-0.33827 0,-0.16965 -0.13621,-0.30585 -0.30585,-0.30585 l -1.79846,0 0,0.64412 z"
         id="polygon6253"
         style="fill:#1c1714" /><path
         d="m 373.4641,854.31788 -0.0846,-0.0789 c 0.0339,-0.0134 0.0661,-0.0308 0.0944,-0.0521 0.0318,-0.024 0.0594,-0.0522 0.0817,-0.0832 0.0247,-0.0343 0.0423,-0.0725 0.0522,-0.11135 0.005,-0.0219 0.008,-0.0425 0.008,-0.0648 0,-0.0426 -0.008,-0.0856 -0.0211,-0.12403 l 0.12263,0.12403 c 0,0.0506 -0.01,0.0979 -0.0268,0.14376 -0.0144,0.0387 -0.0341,0.0753 -0.0592,0.10853 -0.0238,0.0317 -0.0525,0.061 -0.0846,0.086 -0.0259,0.0202 -0.0528,0.0375 -0.0832,0.0521 z m -0.0987,-0.74418 c -0.0385,-0.0136 -0.08,-0.0197 -0.12262,-0.0197 l 0,-0.10289 0.12262,0.12263 z"
         id="path6345"
         style="color:black;fill:url(#linearGradient26623);fill-opacity:1;fill-rule:nonzero;stroke:none;stroke-width:1;marker:none;visibility:visible;display:inline;overflow:visible;enable-background:accumulate" /><path
         d="m 370.35908,855.2157 0,-4.41016 0.10148,0.10148 0,4.2072 2.91756,0 c 0.0222,0 0.0445,-3.6e-4 0.0662,-0.001 0.042,-0.002 0.0837,-0.007 0.12403,-0.0127 0.0195,-0.003 0.0386,-0.006 0.0578,-0.01 0.0283,-0.005 0.0558,-0.011 0.0832,-0.0183 l 0.0775,0.0775 c -0.0258,0.009 -0.0526,0.0155 -0.0789,0.0226 l 0.001,10e-4 c -0.0115,0.003 -0.0236,0.004 -0.0352,0.007 -0.007,0.002 -0.0131,0.004 -0.0197,0.006 -0.038,0.008 -0.0776,0.0149 -0.11699,0.0197 -0.0522,0.006 -0.1053,0.01 -0.15926,0.01 l -3.01904,0 z m 3.35449,-1.22622 -0.0987,-0.0987 c -0.017,-0.17606 -0.1608,-0.31835 -0.33686,-0.33545 l -0.0352,-0.0352 0,0.0338 -1.83228,0 -0.10148,-0.10289 1.93376,0 c 0.0256,0 0.0504,0.002 0.0747,0.006 0.19944,0.0287 0.35088,0.17183 0.39042,0.36646 0.007,0.0329 0.01,0.0688 0.01,0.1043 0,0.0215 -8.9e-4,0.0412 -0.004,0.062 z m 0.0987,-1.72798 -0.0944,-0.0902 0,-0.008 c 0,-0.20358 -0.16983,-0.40733 -0.40733,-0.40733 l -1.89994,0 -0.10148,-0.10148 2.00142,0 c 0.0247,0 0.0486,10e-4 0.0719,0.004 0.23911,0.0307 0.40304,0.21262 0.4327,0.43129 0.003,0.0236 0.004,0.0488 0.004,0.0733 0,0.0339 -0.002,0.0667 -0.007,0.0987 z"
         id="path6353"
         style="fill:#eaeaea;fill-opacity:1" /><path
         d="m 373.5296,852.65946 -0.0726,-0.0724 c 0.18401,-0.10148 0.27992,-0.28541 0.25652,-0.48626 0.0657,0.0592 0.0417,0.0343 0.10571,0.10007 -0.005,0.19254 -0.12276,0.36955 -0.28968,0.45857 z"
         id="path6365"
         style="fill:url(#linearGradient26625);fill-opacity:1" /><path
         d="m 373.78686,855.14946 -0.0775,-0.0775 c 0.0438,-0.0118 0.0856,-0.026 0.12685,-0.0423 0.0321,-0.0126 0.064,-0.0271 0.0944,-0.0423 0.0374,-0.0186 0.0738,-0.0383 0.10853,-0.0606 0.0342,-0.0221 0.0673,-0.0465 0.0987,-0.0719 0.025,-0.0202 0.0488,-0.0412 0.0719,-0.0634 0.0289,-0.0276 0.056,-0.0568 0.0817,-0.0874 0.026,-0.0308 0.0506,-0.0622 0.0733,-0.0958 0.0184,-0.0271 0.0361,-0.0557 0.0521,-0.0846 0.0204,-0.0369 0.0384,-0.0747 0.055,-0.11416 0.017,-0.0405 0.0311,-0.0824 0.0437,-0.12544 0.0104,-0.0357 0.0196,-0.0727 0.0268,-0.10994 0.0108,-0.0554 0.0178,-0.11204 0.0211,-0.17054 10e-4,-0.0254 0.003,-0.0502 0.003,-0.0761 0,-0.0232 -10e-4,-0.0472 -0.003,-0.0705 -0.003,-0.0532 -0.0101,-0.11321 -0.0211,-0.16531 l 0.12122,0.13008 c 0.003,0.0347 0.004,0.07 0.004,0.10571 l 0,0.0324 c -10e-4,0.045 -0.004,0.0901 -0.01,0.1339 -0.007,0.0558 -0.0184,0.1102 -0.0324,0.1635 -0.009,0.0351 -0.0204,0.0705 -0.0324,0.1043 -0.0147,0.041 -0.0308,0.0809 -0.0493,0.1198 -0.018,0.0378 -0.0377,0.0741 -0.0592,0.10994 -0.017,0.0281 -0.0347,0.0552 -0.0536,0.0818 -0.0234,0.0329 -0.0484,0.0654 -0.0747,0.0958 -0.026,0.0303 -0.0544,0.0583 -0.0831,0.086 -0.0231,0.0223 -0.0472,0.0444 -0.0719,0.0648 -0.031,0.0258 -0.0625,0.0506 -0.0958,0.0733 -0.0339,0.0231 -0.0695,0.0435 -0.10571,0.0634 -0.0295,0.0162 -0.0595,0.0311 -0.0902,0.0451 -0.0397,0.0179 -0.0809,0.0339 -0.12262,0.0479 z"
         id="path6413"
         style="fill:url(#linearGradient26627);fill-opacity:1" /><path
         d="m 392.07056,855.14345 0,-4.26478 0.88358,0 0,1.69648 0.91893,0 1.24881,-1.69648 1.09565,0 -1.29593,1.72005 c 0.61073,0.0679 1.04852,0.61592 1.04852,1.26058 0,0.71253 -0.60555,1.28415 -1.28415,1.28415 l -2.61541,0 z m 1.02496,-0.90715 1.4373,-0.0118 c 0,0 0.39677,-0.0298 0.40056,-0.377 0.004,-0.34717 -0.44769,-0.34165 -0.44769,-0.34165 l -1.39017,0 0,0.73043 z"
         id="path6139"
         style="fill:#9d9d9d;fill-opacity:1" /><path
         d="m 391.87008,855.31859 0,-4.61453 1.28965,0 0,1.69557 0.61029,0 1.25582,-1.69557 1.56026,0 -1.3573,1.79705 c 0.54287,0.20357 0.91614,0.74656 0.91614,1.35729 0,0.81432 -0.64447,1.46019 -1.45878,1.46019 l -2.81608,0 z m 0.13531,-0.13671 2.68077,0 c 0.74646,0 1.32347,-0.57702 1.32347,-1.32348 0,-0.61073 -0.44092,-1.11858 -0.98379,-1.28823 l 1.28964,-1.7308 -1.18816,0 -1.28965,1.69697 -0.81325,0 0,-1.69697 -1.01903,0 0,4.34251 z m 1.01903,-0.88232 0,-0.88231 1.56026,0 0,0.13671 -1.42495,0 0,0.61029 1.42495,0 0,0.13531 -1.56026,0 z"
         id="polygon6235"
         style="fill:#1c1714" /><path
         d="m 394.58468,854.40245 -1.63073,-0.001 0,-1.04863 0.10571,0.0944 0,0.82452 1.52079,-0.10571 c 0.16965,0 0.30585,-0.1362 0.30585,-0.30585 0,-0.16964 -0.1362,-0.30726 -0.30585,-0.30726 l 0,-0.12967 c 0.23751,0 0.4468,0.19943 0.4468,0.43693 0,0.19032 -0.13171,0.3521 -0.30585,0.41156 l 0.0705,0.0705 c -0.066,0.0306 -0.13489,0.0597 -0.20719,0.0606 z"
         id="path6267"
         style="fill:#1c1714" /><path
         d="m 392.00539,855.2157 0,-4.41016 0.10289,0.10148 0,4.2072 2.57788,0 c 0.022,0 0.0443,-2.2e-4 0.0663,-0.001 0.0696,-0.004 0.13771,-0.0135 0.20437,-0.0282 4.5e-4,-9e-5 9.5e-4,9e-5 10e-4,0 0.0193,-0.004 0.0389,-0.009 0.0578,-0.0141 l 0.0817,0.0818 c -0.0178,0.006 -0.0365,0.0106 -0.055,0.0155 -0.0184,0.005 -0.0365,0.01 -0.055,0.0141 l -10e-4,-10e-4 c -0.0459,0.0105 -0.092,0.0197 -0.13953,0.0254 -0.0525,0.006 -0.10671,0.01 -0.16068,0.01 l -2.68077,0 z m 3.06978,-1.20367 -0.0832,-0.0944 c 0.003,-0.0207 0,-0.0358 0,-0.0578 0,-0.0919 -0.0256,-0.17106 -0.0705,-0.23678 -0.0262,-0.0385 -0.0561,-0.0795 -0.0944,-0.10571 -0.045,-0.0308 -0.10447,-0.0485 -0.16491,-0.0592 -0.0279,-0.005 -0.0527,-0.0113 -0.0817,-0.0113 l -1.52079,0 -0.10571,-0.0944 1.6265,0 c 0.0247,0 0.0578,-0.004 0.0817,0 0.2156,0.0339 0.39018,0.21992 0.42424,0.43552 0.004,0.0239 0.0113,0.0472 0.0113,0.0719 0,0.012 0.001,0.0235 0,0.0352 -0.003,0.0645 -0.0147,0.0781 -0.0225,0.11698 z m -1.20367,-1.40803 -0.0338,-0.10289 1.25582,-1.69557 0.0677,0.10148 -1.28965,1.69698 z"
         id="path6511"
         style="fill:#eaeaea;fill-opacity:1" /><path
         d="m 395.08742,855.15743 c -0.0272,-0.0272 -0.0442,-0.0597 -0.0715,-0.0869 0.0849,-0.0229 0.16734,-0.055 0.24526,-0.0959 0.10829,-0.055 0.20886,-0.12561 0.29656,-0.20971 0.0753,-0.0752 0.14405,-0.15751 0.2001,-0.24816 0.0746,-0.12212 0.12894,-0.25671 0.15782,-0.39693 0.0212,-0.10067 0.0288,-0.20388 0.0258,-0.30663 5.5e-4,-0.0154 -0.003,-0.039 -0.001,-0.0494 0.0344,0.0339 0.0687,0.0575 0.10307,0.0914 -8.5e-4,0.0957 -0.0116,0.2017 -0.0314,0.29537 -0.0169,0.075 -0.0408,0.14833 -0.0692,0.21968 -0.0245,0.0627 -0.0582,0.121 -0.0897,0.18003 -0.0438,0.0716 -0.0926,0.14035 -0.14889,0.2026 -0.0431,0.043 -0.0859,0.0862 -0.1292,0.12898 -0.0879,0.0798 -0.18846,0.14519 -0.29523,0.19686 -0.0592,0.0281 -0.13004,0.0588 -0.19249,0.0788 z"
         id="path6517"
         style="fill:url(#linearGradient26629);fill-opacity:1" /><path
         d="m 394.93823,852.58427 0.0361,0.0367 c -0.0278,-0.007 -0.056,-0.0126 -0.0843,-0.0175 l 0.0482,-0.0192 z m 0.97354,0.99612 0.12383,0.12664 c 0.006,0.05 0.008,0.10085 0.008,0.15188 l -1.4e-4,0.006 -0.105,-0.10273 c -0.005,-0.0621 -0.0136,-0.1229 -0.0267,-0.18194 l 0,0 z"
         id="path6545"
         style="fill:#1c1714" /><path
         d="m 396.04205,853.78229 -0.11416,-0.11698 c -0.0838,-0.55116 -0.51959,-0.96995 -1.03736,-1.06131 l 1.25441,-1.69698 -0.98379,0 -0.0677,-0.10148 1.25582,0 -1.28965,1.7308 c 0.5525,0.16257 0.94993,0.66688 0.98239,1.24595 z"
         id="path6547"
         style="fill:#1c1714" /><polygon
         points="42.516,20.484 42.516,20.484 42.516,21.754 41.9064,21.754 41.8302,21.8302 42.6176,21.8302 42.6176,20.5602 43.2018,20.5602 43.2272,20.484 "
         transform="matrix(1.3358169,0,0,-1.3358169,336.12849,879.96638)"
         id="polygon6555"
         style="fill:#1c1714" /><path
         d="m 394.79246,854.34199 -0.0936,-0.0819 c 0.15848,-0.0539 0.25091,-0.17798 0.29302,-0.3434 l 0.0835,0.0944 c -0.044,0.14585 -0.15275,0.26847 -0.28293,0.33091 z"
         id="path6561"
         style="fill:url(#linearGradient26631);fill-opacity:1" /><polygon
         points="35.5056,21.7794 35.5056,20.6618 37.1312,18.579 36.3184,18.579 36.3184,18.579 35.1754,20.103 34.007,18.579 33.1942,18.579 34.8198,20.6618 34.8198,21.7794 "
         transform="matrix(1.3358169,0,0,-1.3358169,336.12849,879.96638)"
         id="polygon6135"
         style="fill:#9d9d9d;fill-opacity:1" /><path
         d="m 380.13079,855.31859 2.34109,-2.98662 0,-1.62791 1.25582,0 0,1.62791 2.37492,2.98662 -1.52784,0 -1.45878,-1.93517 -1.45878,1.93517 -1.52643,0 z m 0.27061,-0.13671 1.18817,0 1.52643,-2.00142 1.4926,2.00142 1.18817,0 -2.20579,-2.81608 0,-1.52643 -0.98379,0 0,1.52643 -2.20579,2.81608 z"
         id="polygon6177"
         style="fill:#1c1714" /><path
         d="m 381.58957,855.2157 -0.0338,-0.10148 1.56026,-2.06907 0,0.16914 -1.52643,2.00141 z m 4.27485,0 -0.20296,-0.10148 -2.13813,-2.71459 0,-1.49261 -0.84849,0 -0.10148,-0.10148 1.05145,0 0,1.56026 2.23961,2.8499 z"
         id="polygon6465"
         style="fill:#1c1714" /><path
         d="m 380.33375,855.2157 2.23961,-2.8499 0,-1.56026 0.10148,0.10148 0,1.49261 -2.13672,2.71459 1.01762,0 0.0338,0.10148 -1.25582,0 z m 4.27485,0 -1.4926,-2.00141 0,-0.16914 1.56167,2.06907 0.98379,0 0.20296,0.10148 -1.25582,0 z"
         id="polygon6467"
         style="fill:#eaeaea;fill-opacity:1" /><polygon
         points="40.6618,19.1632 40.6618,18.579 37.7662,18.579 37.7662,21.7794 40.6618,21.7794 40.6618,21.1698 38.452,21.1698 38.452,20.4332 40.5856,20.4332 40.5856,19.8236 38.452,19.8236 38.452,19.1632 40.6618,19.1632 "
         transform="matrix(1.3358169,0,0,-1.3358169,336.12849,879.96638)"
         id="polygon6137"
         style="fill:#9d9d9d;fill-opacity:1" /><path
         d="m 386.40706,855.31859 0,-4.61453 4.2072,0 0,1.15293 -2.95138,0 0,0.64412 2.8499,0 0,1.15433 -2.8499,0 0,0.50881 2.95138,0 0,1.15434 -4.2072,0 z m 0.13672,-0.13671 3.93518,0 0,-0.88232 -2.95139,0 0,-0.77942 2.84991,0 0,-0.88232 -2.84991,0 0,-0.91614 2.95139,0 0,-0.88231 -3.93518,0 0,4.34251 z"
         id="polygon6153"
         style="fill:#1c1714" /><path
         d="m 386.50995,855.2157 0,-4.41016 0.10148,0.10148 0,4.2072 3.79987,0 0.10148,0.10148 -4.00283,0 z m 1.05145,-1.66174 -0.10148,-0.10289 2.8499,0 0.10148,0.10289 -2.8499,0 z m 0,-1.79845 -0.10148,-0.10148 2.95138,0 0.10148,0.10148 -2.95138,0 z"
         id="polygon6485"
         style="fill:#eaeaea;fill-opacity:1" /><path
         d="m 390.51278,855.2157 -0.10148,-0.10148 0,-0.71177 -2.95138,0 0,-0.95138 0.10148,0.10289 0,0.71177 2.95138,0 0,0.94997 z m -0.10148,-1.66174 -0.10148,-0.10289 0,-0.74559 -2.8499,0 0,-1.05145 0.10148,0.10148 0,0.84849 2.8499,0 0,0.94996 z m 0.10148,-1.79845 -0.10148,-0.10148 0,-0.74701 -3.79987,0 -0.10148,-0.10148 4.00283,0 0,0.94997 z"
         id="polygon6487"
         style="fill:#1c1714" /><path
         d="m 379.38411,851.61955 -2.57866,0 -0.3393,-0.74646 -0.98396,0 2.13757,4.27515 0.95004,0 2.13757,-4.27515 -0.98396,0 -0.3393,0.74646 z m -0.40716,0.81431 -0.88217,1.83221 -0.88217,-1.83221 1.76434,0 z"
         id="path6147"
         style="fill:#9d9d9d;fill-opacity:1" /><path
         d="m 377.51767,855.31859 -2.30727,-4.61453 1.3573,0 0.33968,0.7456 2.37492,0 0.33968,-0.7456 1.35729,0 -2.30726,4.61453 -1.15434,0 z m 0.10148,-0.13671 0.96265,0 -0.0465,-0.0677 2.10431,-4.2072 -0.88232,0 -0.038,-0.0578 -0.35941,0.716 0.0578,0.0888 -2.61171,0 -0.37351,-0.74701 -0.88231,0 -0.11276,-0.0676 -0.0226,0 2.20438,4.34251 z m 0.47498,-1.01763 -0.81325,-1.69697 1.66174,0 -0.84849,1.69697 z m 0,-0.30585 0.6117,-1.2544 -1.22199,0 0.61029,1.2544 z"
         id="polygon6205"
         style="fill:#1c1714" /><polygon
         points="31.4162,19.1886 31.4162,19.3664 30.832,20.5602 30.705,20.6364 30.705,20.6364 "
         transform="matrix(1.3358169,0,0,-1.3358169,336.12849,879.96638)"
         id="polygon6463"
         style="fill:#1c1714" /><path
         d="m 377.58532,855.2157 -2.20437,-4.41016 0.16913,0.10148 2.10431,4.2072 0.8809,0 0.0691,0.10148 -1.01903,0 z m 0.50881,-0.88231 0,-0.23679 0.78084,-1.59549 -1.56026,0 -0.17054,-0.10148 1.90134,0 -0.95138,1.93376 z m 1.32348,-2.67936 -0.0677,-0.10289 0.33968,-0.7456 0.0676,0.10148 -0.33967,0.74701 z"
         id="polygon6451"
         style="fill:#eaeaea;fill-opacity:1" /><path
         d="m 384.40597,856.9812 -2.57866,0 -0.3393,-0.74646 -0.98396,0 2.13757,4.27515 0.95004,0 2.13757,-4.27515 -0.98396,0 -0.3393,0.74646 z m -0.40716,0.81431 -0.88217,1.83221 -0.88217,-1.83221 1.76434,0 z"
         id="path12700"
         style="fill:#9d9d9d;fill-opacity:1" /><path
         d="m 382.53953,860.68024 -2.30727,-4.61453 1.3573,0 0.33968,0.7456 2.37492,0 0.33968,-0.7456 1.35729,0 -2.30726,4.61453 -1.15434,0 z m 0.10148,-0.13671 0.96265,0 -0.0465,-0.0677 2.10431,-4.2072 -0.88232,0 -0.038,-0.0578 -0.35941,0.716 0.0578,0.0888 -2.61171,0 -0.37351,-0.74701 -0.88231,0 -0.11276,-0.0677 -0.0226,0 2.20438,4.34251 z m 0.47498,-1.01763 -0.81325,-1.69697 1.66174,0 -0.84849,1.69697 z m 0,-0.30585 0.6117,-1.2544 -1.22199,0 0.61029,1.2544 z"
         id="path12702"
         style="fill:#1c1714" /><polygon
         points="31.4162,19.1886 31.4162,19.3664 30.832,20.5602 30.705,20.6364 30.705,20.6364 "
         transform="matrix(1.3358169,0,0,-1.3358169,341.15035,885.32803)"
         id="polygon12704"
         style="fill:#1c1714" /><path
         d="m 382.60718,860.57735 -2.20437,-4.41016 0.16913,0.10148 2.10431,4.2072 0.8809,0 0.0691,0.10148 -1.01903,0 z m 0.50881,-0.88231 0,-0.23679 0.78084,-1.59549 -1.56026,0 -0.17054,-0.10148 1.90134,0 -0.95138,1.93376 z m 1.32348,-2.67936 -0.0677,-0.10289 0.33968,-0.7456 0.0676,0.10148 -0.33967,0.74701 z"
         id="path12706"
         style="fill:#eaeaea;fill-opacity:1" /><polygon
         points="40.6618,19.1632 40.6618,18.579 37.7662,18.579 37.7662,21.7794 40.6618,21.7794 40.6618,21.1698 38.452,21.1698 38.452,20.4332 40.5856,20.4332 40.5856,19.8236 38.452,19.8236 38.452,19.1632 40.6618,19.1632 "
         transform="matrix(1.3358169,0,0,-1.3358169,330.73453,874.6064)"
         id="polygon12722"
         style="fill:#9d9d9d;fill-opacity:1" /><path
         d="m 381.0131,849.95861 0,-4.61453 4.2072,0 0,1.15293 -2.95138,0 0,0.64412 2.8499,0 0,1.15433 -2.8499,0 0,0.50881 2.95138,0 0,1.15434 -4.2072,0 z m 0.13672,-0.13671 3.93518,0 0,-0.88232 -2.95139,0 0,-0.77942 2.84991,0 0,-0.88232 -2.84991,0 0,-0.91614 2.95139,0 0,-0.88231 -3.93518,0 0,4.34251 z"
         id="path12724"
         style="fill:#1c1714" /><path
         d="m 381.11599,849.85572 0,-4.41016 0.10148,0.10148 0,4.2072 3.79987,0 0.10148,0.10148 -4.00283,0 z m 1.05145,-1.66174 -0.10148,-0.10289 2.8499,0 0.10148,0.10289 -2.8499,0 z m 0,-1.79845 -0.10148,-0.10148 2.95138,0 0.10148,0.10148 -2.95138,0 z"
         id="path12726"
         style="fill:#eaeaea;fill-opacity:1" /><path
         d="m 385.11882,849.85572 -0.10148,-0.10148 0,-0.71177 -2.95138,0 0,-0.95138 0.10148,0.10289 0,0.71177 2.95138,0 0,0.94997 z m -0.10148,-1.66174 -0.10148,-0.10289 0,-0.74559 -2.8499,0 0,-1.05145 0.10148,0.10148 0,0.84849 2.8499,0 0,0.94996 z m 0.10148,-1.79845 -0.10148,-0.10148 0,-0.74701 -3.79987,0 -0.10148,-0.10148 4.00283,0 0,0.94997 z"
         id="path12728"
         style="fill:#1c1714" /><path
         d="m 381.8946,862.35256 1.96792,0 c 0.30537,0 0.47502,0.20358 0.47502,0.47501 0,0.30537 -0.16965,0.50895 -0.47502,0.50895 l -1.96792,0 0,-0.98396 z m 0,1.79827 1.90007,0 c 0.27143,0 0.44108,0.16965 0.44108,0.44109 0,0.23751 -0.16965,0.44109 -0.44108,0.44109 l -1.90007,0 0,-0.88218 0,0 z m -0.9161,-2.61259 0,4.27515 2.95188,0 c 0.6786,0 1.22147,-0.54287 1.22147,-1.22147 0,-0.30537 -0.10178,-0.61074 -0.33929,-0.81431 0.27144,-0.23751 0.44108,-0.57681 0.44108,-0.95004 0,-0.67859 -0.5768,-1.28933 -1.2554,-1.28933 l -3.01974,0 0,0 z"
         id="path12766"
         style="fill:#9d9d9d;fill-opacity:1" /><path
         d="m 380.80944,865.98374 0,-4.61453 3.18817,0 c 0.78039,0 1.42636,0.64446 1.42636,1.45878 0,0.37323 -0.13599,0.71246 -0.3735,0.94997 0.19258,0.18788 0.25248,0.53442 0.27062,0.81466 0,0.78038 -0.61075,1.39112 -1.39113,1.39112 l -3.12052,0 z m 0.13531,-0.13671 2.98521,0 c 0.71252,0 1.25582,-0.54189 1.25582,-1.25441 0,-0.0479 -0.003,-0.0962 -0.008,-0.14377 l -0.0832,-0.0846 c -0.012,-0.0567 -0.0292,-0.1122 -0.0493,-0.16632 -0.009,-0.0237 -0.018,-0.0474 -0.0282,-0.0705 -0.001,-0.003 -0.003,-0.007 -0.004,-0.01 -0.003,-0.006 -0.006,-0.0122 -0.008,-0.0183 -0.009,-0.0199 -0.0192,-0.0399 -0.0296,-0.0592 -0.0536,-0.0982 -0.12043,-0.18668 -0.19591,-0.26215 0.27144,-0.23751 0.44116,-0.57674 0.44116,-0.94997 0,-0.6786 -0.5434,-1.25582 -1.22199,-1.25582 l -2.98522,0 -0.0677,-0.0677 0,4.34251 z"
         id="path12768"
         style="fill:#1c1714" /><path
         d="m 381.86089,865.03237 0,-0.91615 0.0677,0.0691 1.86611,0 c 0.20358,0 0.40733,0.20375 0.40733,0.40733 0,0.1242 -0.12461,0.2458 -0.26296,0.31317 0,0 0.11534,0.0608 0.0769,0.0772 -0.0382,0.0163 -0.0733,0.0282 -0.0733,0.0282 -0.0177,0.005 -0.0257,0.006 -0.0442,0.011 -0.0284,0.007 -0.0713,0.0105 -0.10379,0.0101 l -1.93376,0 z m 0.20296,-0.20297 1.7308,0 c 0.16965,0 0.27203,-0.10106 0.27203,-0.23678 0,-0.16965 -0.10238,-0.27203 -0.27203,-0.27203 l -1.7308,0 0,0.50881 z"
         id="path12770"
         style="fill:#1c1714" /><path
         d="m 381.86089,863.37063 0,-1.05145 0.0677,0.0677 1.93377,0 c 0.2375,0 0.44115,0.23758 0.44115,0.44116 0,0.18068 -0.11811,0.36082 -0.27907,0.43693 l 0.0606,0.0564 c -0.0165,0.008 -0.0332,0.0136 -0.0507,0.0197 l 0.001,0.001 c -0.0132,0.005 -0.027,0.008 -0.0409,0.0113 -0.003,8.3e-4 -0.007,0.002 -0.01,0.003 -0.0388,0.009 -0.0797,0.0141 -0.12263,0.0141 l -2.00141,0 z m 0.20296,-0.20437 1.79846,0 c 0.16964,0 0.30585,-0.13469 0.30585,-0.33827 0,-0.16965 -0.13621,-0.30585 -0.30585,-0.30585 l -1.79846,0 0,0.64412 z"
         id="path12772"
         style="fill:#1c1714" /><path
         d="m 384.01594,864.98303 -0.0846,-0.0789 c 0.0339,-0.0134 0.0661,-0.0308 0.0944,-0.0521 0.0318,-0.024 0.0594,-0.0522 0.0817,-0.0832 0.0247,-0.0343 0.0423,-0.0725 0.0521,-0.11135 0.005,-0.0219 0.008,-0.0425 0.008,-0.0648 0,-0.0426 -0.008,-0.0856 -0.0211,-0.12403 l 0.12263,0.12403 c 0,0.0506 -0.01,0.0979 -0.0268,0.14376 -0.0144,0.0387 -0.0341,0.0753 -0.0592,0.10853 -0.0238,0.0317 -0.0525,0.061 -0.0846,0.086 -0.0259,0.0202 -0.0528,0.0375 -0.0831,0.0521 z m -0.0987,-0.74418 c -0.0385,-0.0136 -0.08,-0.0197 -0.12262,-0.0197 l 0,-0.10289 0.12262,0.12263 z"
         id="path12774"
         style="color:black;fill:url(#linearGradient26633);fill-opacity:1;fill-rule:nonzero;stroke:none;stroke-width:1;marker:none;visibility:visible;display:inline;overflow:visible;enable-background:accumulate" /><path
         d="m 380.91092,865.88085 0,-4.41016 0.10148,0.10148 0,4.2072 2.91756,0 c 0.0222,0 0.0445,-3.6e-4 0.0662,-10e-4 0.042,-0.002 0.0837,-0.007 0.12403,-0.0127 0.0195,-0.003 0.0386,-0.006 0.0578,-0.01 0.0283,-0.005 0.0558,-0.011 0.0832,-0.0183 l 0.0775,0.0775 c -0.0258,0.009 -0.0526,0.0155 -0.0789,0.0226 l 10e-4,10e-4 c -0.0115,0.003 -0.0236,0.004 -0.0352,0.007 -0.007,0.002 -0.013,0.004 -0.0197,0.006 -0.038,0.008 -0.0776,0.0149 -0.11699,0.0197 -0.0522,0.006 -0.1053,0.01 -0.15926,0.01 l -3.01904,0 z m 3.35449,-1.22622 -0.0987,-0.0987 c -0.017,-0.17606 -0.1608,-0.31835 -0.33686,-0.33545 l -0.0352,-0.0352 0,0.0338 -1.83228,0 -0.10148,-0.10289 1.93376,0 c 0.0256,0 0.0504,0.002 0.0747,0.006 0.19944,0.0287 0.35088,0.17183 0.39042,0.36646 0.007,0.0329 0.01,0.0688 0.01,0.1043 0,0.0215 -8.9e-4,0.0412 -0.004,0.062 z m 0.0987,-1.72798 -0.0944,-0.0902 0,-0.008 c 0,-0.20358 -0.16983,-0.40733 -0.40733,-0.40733 l -1.89994,0 -0.10148,-0.10148 2.00142,0 c 0.0247,0 0.0486,10e-4 0.0719,0.004 0.23911,0.0307 0.40304,0.21262 0.4327,0.43129 0.003,0.0236 0.004,0.0489 0.004,0.0733 0,0.0339 -0.002,0.0667 -0.007,0.0987 z"
         id="path12776"
         style="fill:#eaeaea;fill-opacity:1" /><path
         d="m 384.08144,863.32461 -0.0725,-0.0724 c 0.18401,-0.10148 0.27992,-0.28541 0.25652,-0.48626 0.0657,0.0592 0.0417,0.0343 0.10571,0.10007 -0.005,0.19254 -0.12276,0.36955 -0.28968,0.45857 z"
         id="path12778"
         style="fill:url(#linearGradient26635);fill-opacity:1" /><path
         d="m 384.3387,865.81461 -0.0775,-0.0775 c 0.0438,-0.0118 0.0856,-0.026 0.12685,-0.0423 0.0321,-0.0126 0.064,-0.0271 0.0944,-0.0423 0.0374,-0.0186 0.0738,-0.0383 0.10853,-0.0606 0.0342,-0.022 0.0673,-0.0465 0.0987,-0.0719 0.025,-0.0202 0.0488,-0.0412 0.0719,-0.0634 0.0289,-0.0276 0.056,-0.0568 0.0817,-0.0874 0.026,-0.0308 0.0506,-0.0622 0.0733,-0.0958 0.0184,-0.0271 0.0361,-0.0557 0.0522,-0.0846 0.0204,-0.0369 0.0384,-0.0747 0.055,-0.11416 0.017,-0.0405 0.0311,-0.0824 0.0437,-0.12544 0.0104,-0.0357 0.0196,-0.0727 0.0268,-0.10994 0.0108,-0.0554 0.0178,-0.11204 0.0212,-0.17054 0.001,-0.0254 0.003,-0.0502 0.003,-0.0761 0,-0.0232 -10e-4,-0.0472 -0.003,-0.0705 -0.003,-0.0532 -0.0101,-0.11321 -0.0212,-0.16531 l 0.12122,0.13008 c 0.003,0.0347 0.004,0.07 0.004,0.10571 l 0,0.0324 c -10e-4,0.045 -0.004,0.0901 -0.01,0.1339 -0.007,0.0558 -0.0184,0.1102 -0.0324,0.1635 -0.009,0.0351 -0.0204,0.0705 -0.0324,0.1043 -0.0147,0.041 -0.0308,0.0809 -0.0493,0.1198 -0.018,0.0378 -0.0377,0.0741 -0.0592,0.10994 -0.017,0.0281 -0.0347,0.0552 -0.0535,0.0817 -0.0234,0.0329 -0.0484,0.0654 -0.0747,0.0958 -0.026,0.0303 -0.0544,0.0583 -0.0832,0.086 -0.0231,0.0223 -0.0472,0.0444 -0.0719,0.0648 -0.031,0.0258 -0.0625,0.0506 -0.0958,0.0733 -0.0339,0.0231 -0.0695,0.0435 -0.10571,0.0634 -0.0295,0.0162 -0.0595,0.0311 -0.0902,0.0451 -0.0397,0.0179 -0.0809,0.0339 -0.12262,0.0479 z"
         id="path12780"
         style="fill:url(#linearGradient26637);fill-opacity:1" /><path
         d="m 381.22979,844.33788 0,-4.26478 0.88358,0 0,1.69648 0.91893,0 1.24881,-1.69648 1.09565,0 -1.29593,1.72005 c 0.61073,0.0679 1.04852,0.61592 1.04852,1.26058 0,0.71253 -0.60555,1.28415 -1.28415,1.28415 l -2.61541,0 z m 1.02496,-0.90715 1.4373,-0.0118 c 0,0 0.39677,-0.0298 0.40056,-0.377 0.004,-0.34717 -0.44769,-0.34165 -0.44769,-0.34165 l -1.39017,0 0,0.73043 z"
         id="path12865-4"
         style="fill:#9d9d9d;fill-opacity:1" /><path
         d="m 381.02931,844.51302 0,-4.61453 1.28965,0 0,1.69557 0.61029,0 1.25582,-1.69557 1.56026,0 -1.3573,1.79705 c 0.54287,0.20357 0.91614,0.74656 0.91614,1.35729 0,0.81432 -0.64447,1.46019 -1.45878,1.46019 l -2.81608,0 z m 0.13531,-0.13671 2.68077,0 c 0.74646,0 1.32347,-0.57702 1.32347,-1.32348 0,-0.61073 -0.44092,-1.11858 -0.98379,-1.28823 l 1.28964,-1.7308 -1.18816,0 -1.28965,1.69697 -0.81325,0 0,-1.69697 -1.01903,0 0,4.34251 z m 1.01903,-0.88232 0,-0.88231 1.56026,0 0,0.13671 -1.42495,0 0,0.61029 1.42495,0 0,0.13531 -1.56026,0 z"
         id="path12867-3"
         style="fill:#1c1714" /><path
         d="m 383.74391,843.59688 -1.63073,-0.001 0,-1.04863 0.10571,0.0944 0,0.82452 1.52079,-0.10571 c 0.16965,0 0.30585,-0.1362 0.30585,-0.30585 0,-0.16964 -0.1362,-0.30726 -0.30585,-0.30726 l 0,-0.12967 c 0.23751,0 0.4468,0.19943 0.4468,0.43693 0,0.19032 -0.13171,0.3521 -0.30585,0.41156 l 0.0705,0.0705 c -0.0659,0.0306 -0.13489,0.0597 -0.20719,0.0606 z"
         id="path12869-1"
         style="fill:#1c1714" /><path
         d="m 381.16462,844.41013 0,-4.41016 0.10289,0.10148 0,4.2072 2.57788,0 c 0.022,0 0.0443,-2.2e-4 0.0662,-10e-4 0.0696,-0.004 0.13771,-0.0135 0.20437,-0.0282 4.5e-4,-9e-5 9.5e-4,9e-5 0.001,0 0.0193,-0.004 0.0389,-0.009 0.0578,-0.0141 l 0.0817,0.0818 c -0.0178,0.006 -0.0366,0.0106 -0.055,0.0155 -0.0184,0.005 -0.0365,0.01 -0.055,0.0141 l -10e-4,-10e-4 c -0.0459,0.0105 -0.092,0.0197 -0.13953,0.0254 -0.0525,0.006 -0.10671,0.01 -0.16068,0.01 l -2.68077,0 z m 3.06978,-1.20367 -0.0832,-0.0944 c 0.003,-0.0207 0,-0.0358 0,-0.0578 0,-0.0919 -0.0256,-0.17106 -0.0705,-0.23678 -0.0262,-0.0385 -0.0561,-0.0795 -0.0944,-0.10571 -0.045,-0.0308 -0.10447,-0.0485 -0.16491,-0.0592 -0.0279,-0.005 -0.0527,-0.0113 -0.0817,-0.0113 l -1.52079,0 -0.10571,-0.0944 1.6265,0 c 0.0247,0 0.0578,-0.004 0.0817,0 0.2156,0.0339 0.39018,0.21992 0.42424,0.43552 0.004,0.0239 0.0113,0.0472 0.0113,0.0719 0,0.012 10e-4,0.0235 0,0.0352 -0.003,0.0645 -0.0147,0.0781 -0.0226,0.11698 z m -1.20367,-1.40803 -0.0338,-0.10289 1.25582,-1.69557 0.0677,0.10148 -1.28965,1.69698 z"
         id="path12871-9"
         style="fill:#eaeaea;fill-opacity:1" /><path
         d="m 384.24665,844.35186 c -0.0272,-0.0272 -0.0442,-0.0597 -0.0714,-0.0869 0.0849,-0.0229 0.16734,-0.055 0.24526,-0.0959 0.10829,-0.055 0.20886,-0.12561 0.29656,-0.20971 0.0753,-0.0752 0.14405,-0.15751 0.2001,-0.24816 0.0745,-0.12212 0.12894,-0.25671 0.15782,-0.39693 0.0212,-0.10067 0.0288,-0.20388 0.0258,-0.30663 5.5e-4,-0.0154 -0.003,-0.039 -0.001,-0.0494 0.0344,0.0339 0.0687,0.0575 0.10307,0.0914 -8.5e-4,0.0957 -0.0116,0.2017 -0.0314,0.29537 -0.0169,0.075 -0.0408,0.14833 -0.0692,0.21968 -0.0245,0.0627 -0.0582,0.121 -0.0897,0.18003 -0.0438,0.0716 -0.0926,0.14035 -0.14889,0.2026 -0.0431,0.043 -0.0859,0.0862 -0.1292,0.12898 -0.0879,0.0798 -0.18846,0.14519 -0.29523,0.19686 -0.0592,0.0281 -0.13004,0.0588 -0.19249,0.0788 z"
         id="path12873-0"
         style="fill:url(#linearGradient26639);fill-opacity:1" /><path
         d="m 384.09746,841.7787 0.0361,0.0367 c -0.0278,-0.007 -0.056,-0.0126 -0.0843,-0.0175 l 0.0482,-0.0192 z m 0.97354,0.99612 0.12383,0.12664 c 0.006,0.05 0.008,0.10085 0.008,0.15188 l -1.4e-4,0.006 -0.105,-0.10273 c -0.005,-0.0621 -0.0136,-0.1229 -0.0267,-0.18194 l 0,0 z"
         id="path12875-7"
         style="fill:#1c1714" /><path
         d="m 385.20128,842.97672 -0.11416,-0.11698 c -0.0838,-0.55116 -0.51959,-0.96995 -1.03736,-1.06131 l 1.25441,-1.69698 -0.98379,0 -0.0677,-0.10148 1.25582,0 -1.28965,1.7308 c 0.5525,0.16257 0.94993,0.66688 0.98239,1.24595 z"
         id="path12877-3"
         style="fill:#1c1714" /><polygon
         points="42.516,20.484 42.516,20.484 42.516,21.754 41.9064,21.754 41.8302,21.8302 42.6176,21.8302 42.6176,20.5602 43.2018,20.5602 43.2272,20.484 "
         transform="matrix(1.3358169,0,0,-1.3358169,325.28772,869.16081)"
         id="polygon12879"
         style="fill:#1c1714" /><path
         d="m 383.95169,843.53642 -0.0936,-0.0819 c 0.15848,-0.0539 0.25091,-0.17798 0.29302,-0.3434 l 0.0835,0.0944 c -0.0439,0.14585 -0.15275,0.26847 -0.28293,0.33091 z"
         id="path12881-8"
         style="fill:url(#linearGradient26641);fill-opacity:1" /></g></g></svg>